# MagicaVoxel @ Ephtracy

# group
o 

# material
mtllib ItemGeneratorWhite.mtl
usemtl palette

# normals
vn -1 0 0
vn 1 0 0
vn 0 0 1
vn 0 0 -1
vn 0 -1 0
vn 0 1 0

# texcoords
vt 0.912109 0.5
vt 0.916016 0.5
vt 0.919922 0.5
vt 0.923828 0.5

# verts
v -1.5 0.2 1.5
v -1.5 0.2 -1.5
v -1.5 0.5 1.5
v -1.5 0.5 -1.5
v -1.2 0.5 1.2
v -1.2 0.5 0.7
v -1.2 0.5 -0.7
v -1.2 0.5 -1.2
v -1.2 1.4 1.2
v -1.2 1.4 0.7
v -1.2 1.4 -0.7
v -1.2 1.4 -1.2
v -1.2 1.6 1.2
v -1.2 1.6 0.7
v -1.2 1.6 -0.7
v -1.2 1.6 -1.2
v -1.2 1.8 1.2
v -1.2 1.8 0.7
v -1.2 1.8 -0.7
v -1.2 1.8 -1.2
v -1.1 1.4 1.1
v -1.1 1.4 0.8
v -1.1 1.4 -0.8
v -1.1 1.4 -1.1
v -1.1 1.6 1.1
v -1.1 1.6 0.8
v -1.1 1.6 -0.8
v -1.1 1.6 -1.1
v -1 0.4 0.7
v -1 0.4 -0.7
v -1 0.5 0.7
v -1 0.5 -0.7
v -1 0.6 0.7
v -1 0.6 -0.7
v -0.9 0.6 0.7
v -0.9 0.6 -0.7
v -0.9 0.8 0.7
v -0.9 0.8 -0.7
v -0.4 0.8 0.4
v -0.4 0.8 -0.4
v -0.4 0.9 0.4
v -0.4 0.9 0.3
v -0.4 0.9 -0.3
v -0.4 0.9 -0.4
v -0.4 1 0.3
v -0.4 1 -0.3
v -0.3 0.9 0.4
v -0.3 0.9 0.3
v -0.3 0.9 -0.3
v -0.3 0.9 -0.4
v -0.3 1 0.4
v -0.3 1 0.3
v -0.3 1 -0.3
v -0.3 1 -0.4
v -0.3 1.1 0.3
v -0.3 1.1 -0.3
v 0.7 0.4 1.2
v 0.7 0.4 1
v 0.7 0.4 -1
v 0.7 0.4 -1.2
v 0.7 0.5 1.2
v 0.7 0.5 1
v 0.7 0.5 -1
v 0.7 0.5 -1.2
v 0.7 0.6 1
v 0.7 0.6 0.9
v 0.7 0.6 -0.9
v 0.7 0.6 -1
v 0.7 0.8 0.9
v 0.7 0.8 0.7
v 0.7 0.8 -0.7
v 0.7 0.8 -0.9
v 0.7 1.4 1.2
v 0.7 1.4 0.7
v 0.7 1.4 -0.7
v 0.7 1.4 -1.2
v 0.7 1.6 1.2
v 0.7 1.6 0.7
v 0.7 1.6 -0.7
v 0.7 1.6 -1.2
v 0.7 1.8 1.2
v 0.7 1.8 0.7
v 0.7 1.8 -0.7
v 0.7 1.8 -1.2
v 0.8 1.4 1.1
v 0.8 1.4 0.8
v 0.8 1.4 -0.8
v 0.8 1.4 -1.1
v 0.8 1.6 1.1
v 0.8 1.6 0.8
v 0.8 1.6 -0.8
v 0.8 1.6 -1.1
v 1.2 0.4 0.7
v 1.2 0.4 -0.7
v 1.2 0.5 0.7
v 1.2 0.5 -0.7
v -1.2 0.4 0.7
v -1.2 0.4 -0.7
v -1.2 0.5 0.7
v -1.2 0.5 -0.7
v -0.8 1.4 1.1
v -0.8 1.4 0.8
v -0.8 1.4 -0.8
v -0.8 1.4 -1.1
v -0.8 1.6 1.1
v -0.8 1.6 0.8
v -0.8 1.6 -0.8
v -0.8 1.6 -1.1
v -0.7 0.4 1.2
v -0.7 0.4 1
v -0.7 0.4 -1
v -0.7 0.4 -1.2
v -0.7 0.5 1.2
v -0.7 0.5 1
v -0.7 0.5 -1
v -0.7 0.5 -1.2
v -0.7 0.6 1
v -0.7 0.6 0.9
v -0.7 0.6 -0.9
v -0.7 0.6 -1
v -0.7 0.8 0.9
v -0.7 0.8 0.7
v -0.7 0.8 -0.7
v -0.7 0.8 -0.9
v -0.7 1.4 1.2
v -0.7 1.4 0.7
v -0.7 1.4 -0.7
v -0.7 1.4 -1.2
v -0.7 1.6 1.2
v -0.7 1.6 0.7
v -0.7 1.6 -0.7
v -0.7 1.6 -1.2
v -0.7 1.8 1.2
v -0.7 1.8 0.7
v -0.7 1.8 -0.7
v -0.7 1.8 -1.2
v 0.3 0.9 0.4
v 0.3 0.9 0.3
v 0.3 0.9 -0.3
v 0.3 0.9 -0.4
v 0.3 1 0.4
v 0.3 1 0.3
v 0.3 1 -0.3
v 0.3 1 -0.4
v 0.3 1.1 0.3
v 0.3 1.1 -0.3
v 0.4 0.8 0.4
v 0.4 0.8 -0.4
v 0.4 0.9 0.4
v 0.4 0.9 0.3
v 0.4 0.9 -0.3
v 0.4 0.9 -0.4
v 0.4 1 0.3
v 0.4 1 -0.3
v 0.9 0.6 0.7
v 0.9 0.6 -0.7
v 0.9 0.8 0.7
v 0.9 0.8 -0.7
v 1 0.4 0.7
v 1 0.4 -0.7
v 1 0.5 0.7
v 1 0.5 -0.7
v 1 0.6 0.7
v 1 0.6 -0.7
v 1.1 1.4 1.1
v 1.1 1.4 0.8
v 1.1 1.4 -0.8
v 1.1 1.4 -1.1
v 1.1 1.6 1.1
v 1.1 1.6 0.8
v 1.1 1.6 -0.8
v 1.1 1.6 -1.1
v 1.2 0.5 1.2
v 1.2 0.5 0.7
v 1.2 0.5 -0.7
v 1.2 0.5 -1.2
v 1.2 1.4 1.2
v 1.2 1.4 0.7
v 1.2 1.4 -0.7
v 1.2 1.4 -1.2
v 1.2 1.6 1.2
v 1.2 1.6 0.7
v 1.2 1.6 -0.7
v 1.2 1.6 -1.2
v 1.2 1.8 1.2
v 1.2 1.8 0.7
v 1.2 1.8 -0.7
v 1.2 1.8 -1.2
v 1.5 0.2 1.5
v 1.5 0.2 -1.5
v 1.5 0.5 1.5
v 1.5 0.5 -1.5
v -1.5 0.2 1.5
v -1.5 0.5 1.5
v 1.5 0.2 1.5
v 1.5 0.5 1.5
v -1.2 0.5 1.2
v -1.2 1.4 1.2
v -1.2 1.6 1.2
v -1.2 1.8 1.2
v -0.7 0.5 1.2
v -0.7 1.4 1.2
v -0.7 1.6 1.2
v -0.7 1.8 1.2
v 0.7 0.5 1.2
v 0.7 1.4 1.2
v 0.7 1.6 1.2
v 0.7 1.8 1.2
v 1.2 0.5 1.2
v 1.2 1.4 1.2
v 1.2 1.6 1.2
v 1.2 1.8 1.2
v -1.1 1.4 1.1
v -1.1 1.6 1.1
v -0.8 1.4 1.1
v -0.8 1.6 1.1
v 0.8 1.4 1.1
v 0.8 1.6 1.1
v 1.1 1.4 1.1
v 1.1 1.6 1.1
v -0.7 0.4 1
v -0.7 0.5 1
v -0.7 0.6 1
v 0.7 0.4 1
v 0.7 0.5 1
v 0.7 0.6 1
v -0.7 0.6 0.9
v -0.7 0.8 0.9
v 0.7 0.6 0.9
v 0.7 0.8 0.9
v -0.4 0.8 0.4
v -0.4 0.9 0.4
v -0.3 0.9 0.4
v -0.3 1 0.4
v 0.3 0.9 0.4
v 0.3 1 0.4
v 0.4 0.8 0.4
v 0.4 0.9 0.4
v -0.4 0.9 0.3
v -0.4 1 0.3
v -0.3 0.9 0.3
v -0.3 1 0.3
v -0.3 1.1 0.3
v 0.3 0.9 0.3
v 0.3 1 0.3
v 0.3 1.1 0.3
v 0.4 0.9 0.3
v 0.4 1 0.3
v -1.2 0.4 -0.7
v -1.2 0.5 -0.7
v -1.2 1.4 -0.7
v -1.2 1.6 -0.7
v -1.2 1.8 -0.7
v -1 0.4 -0.7
v -1 0.5 -0.7
v -1 0.6 -0.7
v -0.9 0.6 -0.7
v -0.9 0.8 -0.7
v -0.7 0.8 -0.7
v -0.7 1.4 -0.7
v -0.7 1.6 -0.7
v -0.7 1.8 -0.7
v 0.7 0.8 -0.7
v 0.7 1.4 -0.7
v 0.7 1.6 -0.7
v 0.7 1.8 -0.7
v 0.9 0.6 -0.7
v 0.9 0.8 -0.7
v 1 0.4 -0.7
v 1 0.5 -0.7
v 1 0.6 -0.7
v 1.2 0.4 -0.7
v 1.2 0.5 -0.7
v 1.2 1.4 -0.7
v 1.2 1.6 -0.7
v 1.2 1.8 -0.7
v -1.1 1.4 -0.8
v -1.1 1.6 -0.8
v -0.8 1.4 -0.8
v -0.8 1.6 -0.8
v 0.8 1.4 -0.8
v 0.8 1.6 -0.8
v 1.1 1.4 -0.8
v 1.1 1.6 -0.8
v -0.7 0.4 -1.2
v -0.7 0.5 -1.2
v 0.7 0.4 -1.2
v 0.7 0.5 -1.2
v -0.7 0.4 1.2
v -0.7 0.5 1.2
v 0.7 0.4 1.2
v 0.7 0.5 1.2
v -1.1 1.4 0.8
v -1.1 1.6 0.8
v -0.8 1.4 0.8
v -0.8 1.6 0.8
v 0.8 1.4 0.8
v 0.8 1.6 0.8
v 1.1 1.4 0.8
v 1.1 1.6 0.8
v -1.2 0.4 0.7
v -1.2 0.5 0.7
v -1.2 1.4 0.7
v -1.2 1.6 0.7
v -1.2 1.8 0.7
v -1 0.4 0.7
v -1 0.5 0.7
v -1 0.6 0.7
v -0.9 0.6 0.7
v -0.9 0.8 0.7
v -0.7 0.8 0.7
v -0.7 1.4 0.7
v -0.7 1.6 0.7
v -0.7 1.8 0.7
v 0.7 0.8 0.7
v 0.7 1.4 0.7
v 0.7 1.6 0.7
v 0.7 1.8 0.7
v 0.9 0.6 0.7
v 0.9 0.8 0.7
v 1 0.4 0.7
v 1 0.5 0.7
v 1 0.6 0.7
v 1.2 0.4 0.7
v 1.2 0.5 0.7
v 1.2 1.4 0.7
v 1.2 1.6 0.7
v 1.2 1.8 0.7
v -0.4 0.9 -0.3
v -0.4 1 -0.3
v -0.3 0.9 -0.3
v -0.3 1 -0.3
v -0.3 1.1 -0.3
v 0.3 0.9 -0.3
v 0.3 1 -0.3
v 0.3 1.1 -0.3
v 0.4 0.9 -0.3
v 0.4 1 -0.3
v -0.4 0.8 -0.4
v -0.4 0.9 -0.4
v -0.3 0.9 -0.4
v -0.3 1 -0.4
v 0.3 0.9 -0.4
v 0.3 1 -0.4
v 0.4 0.8 -0.4
v 0.4 0.9 -0.4
v -0.7 0.6 -0.9
v -0.7 0.8 -0.9
v 0.7 0.6 -0.9
v 0.7 0.8 -0.9
v -0.7 0.4 -1
v -0.7 0.5 -1
v -0.7 0.6 -1
v 0.7 0.4 -1
v 0.7 0.5 -1
v 0.7 0.6 -1
v -1.1 1.4 -1.1
v -1.1 1.6 -1.1
v -0.8 1.4 -1.1
v -0.8 1.6 -1.1
v 0.8 1.4 -1.1
v 0.8 1.6 -1.1
v 1.1 1.4 -1.1
v 1.1 1.6 -1.1
v -1.2 0.5 -1.2
v -1.2 1.4 -1.2
v -1.2 1.6 -1.2
v -1.2 1.8 -1.2
v -0.7 0.5 -1.2
v -0.7 1.4 -1.2
v -0.7 1.6 -1.2
v -0.7 1.8 -1.2
v 0.7 0.5 -1.2
v 0.7 1.4 -1.2
v 0.7 1.6 -1.2
v 0.7 1.8 -1.2
v 1.2 0.5 -1.2
v 1.2 1.4 -1.2
v 1.2 1.6 -1.2
v 1.2 1.8 -1.2
v -1.5 0.2 -1.5
v -1.5 0.5 -1.5
v 1.5 0.2 -1.5
v 1.5 0.5 -1.5
v -1.5 0.2 1.5
v 1.5 0.2 1.5
v -1.5 0.2 -1.5
v 1.5 0.2 -1.5
v -1.2 1.6 1.2
v -0.7 1.6 1.2
v 0.7 1.6 1.2
v 1.2 1.6 1.2
v -1.1 1.6 1.1
v -0.8 1.6 1.1
v 0.8 1.6 1.1
v 1.1 1.6 1.1
v -1.1 1.6 0.8
v -0.8 1.6 0.8
v 0.8 1.6 0.8
v 1.1 1.6 0.8
v -1.2 1.6 0.7
v -0.7 1.6 0.7
v 0.7 1.6 0.7
v 1.2 1.6 0.7
v -1.2 1.6 -0.7
v -0.7 1.6 -0.7
v 0.7 1.6 -0.7
v 1.2 1.6 -0.7
v -1.1 1.6 -0.8
v -0.8 1.6 -0.8
v 0.8 1.6 -0.8
v 1.1 1.6 -0.8
v -1.1 1.6 -1.1
v -0.8 1.6 -1.1
v 0.8 1.6 -1.1
v 1.1 1.6 -1.1
v -1.2 1.6 -1.2
v -0.7 1.6 -1.2
v 0.7 1.6 -1.2
v 1.2 1.6 -1.2
v -0.7 0.4 1.2
v 0.7 0.4 1.2
v -0.7 0.4 1
v 0.7 0.4 1
v -1.2 0.4 0.7
v -1 0.4 0.7
v 1 0.4 0.7
v 1.2 0.4 0.7
v -1.2 0.4 -0.7
v -1 0.4 -0.7
v 1 0.4 -0.7
v 1.2 0.4 -0.7
v -0.7 0.4 -1
v 0.7 0.4 -1
v -0.7 0.4 -1.2
v 0.7 0.4 -1.2
v -1.5 0.5 1.5
v 1.5 0.5 1.5
v -1.2 0.5 1.2
v -0.7 0.5 1.2
v 0.7 0.5 1.2
v 1.2 0.5 1.2
v -1.2 0.5 0.7
v 1.2 0.5 0.7
v -1.2 0.5 -0.7
v 1.2 0.5 -0.7
v -1.2 0.5 -1.2
v -0.7 0.5 -1.2
v 0.7 0.5 -1.2
v 1.2 0.5 -1.2
v -1.5 0.5 -1.5
v 1.5 0.5 -1.5
v -0.7 0.6 1
v 0.7 0.6 1
v -0.7 0.6 0.9
v 0.7 0.6 0.9
v -1 0.6 0.7
v -0.9 0.6 0.7
v 0.9 0.6 0.7
v 1 0.6 0.7
v -1 0.6 -0.7
v -0.9 0.6 -0.7
v 0.9 0.6 -0.7
v 1 0.6 -0.7
v -0.7 0.6 -0.9
v 0.7 0.6 -0.9
v -0.7 0.6 -1
v 0.7 0.6 -1
v -0.7 0.8 0.9
v 0.7 0.8 0.9
v -0.9 0.8 0.7
v -0.7 0.8 0.7
v 0.7 0.8 0.7
v 0.9 0.8 0.7
v -0.4 0.8 0.4
v 0.4 0.8 0.4
v -0.4 0.8 -0.4
v 0.4 0.8 -0.4
v -0.9 0.8 -0.7
v -0.7 0.8 -0.7
v 0.7 0.8 -0.7
v 0.9 0.8 -0.7
v -0.7 0.8 -0.9
v 0.7 0.8 -0.9
v -0.4 0.9 0.4
v -0.3 0.9 0.4
v 0.3 0.9 0.4
v 0.4 0.9 0.4
v -0.4 0.9 0.3
v -0.3 0.9 0.3
v 0.3 0.9 0.3
v 0.4 0.9 0.3
v -0.4 0.9 -0.3
v -0.3 0.9 -0.3
v 0.3 0.9 -0.3
v 0.4 0.9 -0.3
v -0.4 0.9 -0.4
v -0.3 0.9 -0.4
v 0.3 0.9 -0.4
v 0.4 0.9 -0.4
v -0.3 1 0.4
v 0.3 1 0.4
v -0.4 1 0.3
v -0.3 1 0.3
v 0.3 1 0.3
v 0.4 1 0.3
v -0.4 1 -0.3
v -0.3 1 -0.3
v 0.3 1 -0.3
v 0.4 1 -0.3
v -0.3 1 -0.4
v 0.3 1 -0.4
v -0.3 1.1 0.3
v 0.3 1.1 0.3
v -0.3 1.1 -0.3
v 0.3 1.1 -0.3
v -1.2 1.4 1.2
v -0.7 1.4 1.2
v 0.7 1.4 1.2
v 1.2 1.4 1.2
v -1.1 1.4 1.1
v -0.8 1.4 1.1
v 0.8 1.4 1.1
v 1.1 1.4 1.1
v -1.1 1.4 0.8
v -0.8 1.4 0.8
v 0.8 1.4 0.8
v 1.1 1.4 0.8
v -1.2 1.4 0.7
v -0.7 1.4 0.7
v 0.7 1.4 0.7
v 1.2 1.4 0.7
v -1.2 1.4 -0.7
v -0.7 1.4 -0.7
v 0.7 1.4 -0.7
v 1.2 1.4 -0.7
v -1.1 1.4 -0.8
v -0.8 1.4 -0.8
v 0.8 1.4 -0.8
v 1.1 1.4 -0.8
v -1.1 1.4 -1.1
v -0.8 1.4 -1.1
v 0.8 1.4 -1.1
v 1.1 1.4 -1.1
v -1.2 1.4 -1.2
v -0.7 1.4 -1.2
v 0.7 1.4 -1.2
v 1.2 1.4 -1.2
v -1.2 1.8 1.2
v -0.7 1.8 1.2
v 0.7 1.8 1.2
v 1.2 1.8 1.2
v -1.2 1.8 0.7
v -0.7 1.8 0.7
v 0.7 1.8 0.7
v 1.2 1.8 0.7
v -1.2 1.8 -0.7
v -0.7 1.8 -0.7
v 0.7 1.8 -0.7
v 1.2 1.8 -0.7
v -1.2 1.8 -1.2
v -0.7 1.8 -1.2
v 0.7 1.8 -1.2
v 1.2 1.8 -1.2

# faces
f 3/1/1 2/1/1 1/1/1
f 4/1/1 2/1/1 3/1/1
f 9/3/1 6/3/1 5/3/1
f 10/3/1 6/3/1 9/3/1
f 11/3/1 8/3/1 7/3/1
f 12/3/1 8/3/1 11/3/1
f 17/3/1 14/3/1 13/3/1
f 18/3/1 14/3/1 17/3/1
f 19/3/1 16/3/1 15/3/1
f 20/3/1 16/3/1 19/3/1
f 25/4/1 22/4/1 21/4/1
f 26/4/1 22/4/1 25/4/1
f 27/4/1 24/4/1 23/4/1
f 28/4/1 24/4/1 27/4/1
f 31/2/1 30/2/1 29/2/1
f 32/2/1 30/2/1 31/2/1
f 33/2/1 32/2/1 31/2/1
f 34/2/1 32/2/1 33/2/1
f 37/2/1 36/2/1 35/2/1
f 38/2/1 36/2/1 37/2/1
f 41/4/1 40/4/1 39/4/1
f 42/4/1 40/4/1 41/4/1
f 43/4/1 40/4/1 42/4/1
f 44/4/1 40/4/1 43/4/1
f 45/4/1 43/4/1 42/4/1
f 46/4/1 43/4/1 45/4/1
f 51/4/1 48/4/1 47/4/1
f 52/4/1 48/4/1 51/4/1
f 53/4/1 50/4/1 49/4/1
f 54/4/1 50/4/1 53/4/1
f 55/4/1 53/4/1 52/4/1
f 56/4/1 53/4/1 55/4/1
f 61/2/1 58/2/1 57/2/1
f 62/2/1 58/2/1 61/2/1
f 63/2/1 60/2/1 59/2/1
f 64/2/1 60/2/1 63/2/1
f 65/3/1 62/3/1 61/3/1
f 68/3/1 64/3/1 63/3/1
f 69/3/1 66/3/1 65/3/1
f 72/3/1 68/3/1 67/3/1
f 73/3/1 70/3/1 69/3/1
f 73/3/1 65/3/1 61/3/1
f 73/3/1 69/3/1 65/3/1
f 74/3/1 70/3/1 73/3/1
f 75/3/1 72/3/1 71/3/1
f 76/3/1 68/3/1 72/3/1
f 76/3/1 72/3/1 75/3/1
f 76/3/1 64/3/1 68/3/1
f 81/3/1 78/3/1 77/3/1
f 82/3/1 78/3/1 81/3/1
f 83/3/1 80/3/1 79/3/1
f 84/3/1 80/3/1 83/3/1
f 89/4/1 86/4/1 85/4/1
f 90/4/1 86/4/1 89/4/1
f 91/4/1 88/4/1 87/4/1
f 92/4/1 88/4/1 91/4/1
f 95/1/1 94/1/1 93/1/1
f 96/1/1 94/1/1 95/1/1
f 97/1/2 98/1/2 99/1/2
f 99/1/2 98/1/2 100/1/2
f 101/4/2 102/4/2 105/4/2
f 105/4/2 102/4/2 106/4/2
f 103/4/2 104/4/2 107/4/2
f 107/4/2 104/4/2 108/4/2
f 109/2/2 110/2/2 113/2/2
f 113/2/2 110/2/2 114/2/2
f 111/2/2 112/2/2 115/2/2
f 115/2/2 112/2/2 116/2/2
f 113/3/2 114/3/2 117/3/2
f 115/3/2 116/3/2 120/3/2
f 117/3/2 118/3/2 121/3/2
f 119/3/2 120/3/2 124/3/2
f 121/3/2 122/3/2 125/3/2
f 113/3/2 117/3/2 125/3/2
f 117/3/2 121/3/2 125/3/2
f 125/3/2 122/3/2 126/3/2
f 123/3/2 124/3/2 127/3/2
f 124/3/2 120/3/2 128/3/2
f 127/3/2 124/3/2 128/3/2
f 120/3/2 116/3/2 128/3/2
f 129/3/2 130/3/2 133/3/2
f 133/3/2 130/3/2 134/3/2
f 131/3/2 132/3/2 135/3/2
f 135/3/2 132/3/2 136/3/2
f 137/4/2 138/4/2 141/4/2
f 141/4/2 138/4/2 142/4/2
f 139/4/2 140/4/2 143/4/2
f 143/4/2 140/4/2 144/4/2
f 142/4/2 143/4/2 145/4/2
f 145/4/2 143/4/2 146/4/2
f 147/4/2 148/4/2 149/4/2
f 149/4/2 148/4/2 150/4/2
f 150/4/2 148/4/2 151/4/2
f 151/4/2 148/4/2 152/4/2
f 150/4/2 151/4/2 153/4/2
f 153/4/2 151/4/2 154/4/2
f 155/2/2 156/2/2 157/2/2
f 157/2/2 156/2/2 158/2/2
f 159/2/2 160/2/2 161/2/2
f 161/2/2 160/2/2 162/2/2
f 161/2/2 162/2/2 163/2/2
f 163/2/2 162/2/2 164/2/2
f 165/4/2 166/4/2 169/4/2
f 169/4/2 166/4/2 170/4/2
f 167/4/2 168/4/2 171/4/2
f 171/4/2 168/4/2 172/4/2
f 173/3/2 174/3/2 177/3/2
f 177/3/2 174/3/2 178/3/2
f 175/3/2 176/3/2 179/3/2
f 179/3/2 176/3/2 180/3/2
f 181/3/2 182/3/2 185/3/2
f 185/3/2 182/3/2 186/3/2
f 183/3/2 184/3/2 187/3/2
f 187/3/2 184/3/2 188/3/2
f 189/1/2 190/1/2 191/1/2
f 191/1/2 190/1/2 192/1/2
f 195/1/3 194/1/3 193/1/3
f 196/1/3 194/1/3 195/1/3
f 201/3/3 198/3/3 197/3/3
f 202/3/3 198/3/3 201/3/3
f 203/3/3 200/3/3 199/3/3
f 204/3/3 200/3/3 203/3/3
f 209/3/3 206/3/3 205/3/3
f 210/3/3 206/3/3 209/3/3
f 211/3/3 208/3/3 207/3/3
f 212/3/3 208/3/3 211/3/3
f 215/4/3 214/4/3 213/4/3
f 216/4/3 214/4/3 215/4/3
f 219/4/3 218/4/3 217/4/3
f 220/4/3 218/4/3 219/4/3
f 224/2/3 222/2/3 221/2/3
f 224/2/3 223/2/3 222/2/3
f 225/2/3 223/2/3 224/2/3
f 226/2/3 223/2/3 225/2/3
f 229/2/3 228/2/3 227/2/3
f 230/2/3 228/2/3 229/2/3
f 233/4/3 232/4/3 231/4/3
f 235/4/3 233/4/3 231/4/3
f 235/4/3 234/4/3 233/4/3
f 236/4/3 234/4/3 235/4/3
f 237/4/3 235/4/3 231/4/3
f 238/4/3 235/4/3 237/4/3
f 241/4/3 240/4/3 239/4/3
f 242/4/3 240/4/3 241/4/3
f 245/4/3 243/4/3 242/4/3
f 246/4/3 243/4/3 245/4/3
f 247/4/3 245/4/3 244/4/3
f 248/4/3 245/4/3 247/4/3
f 254/2/3 250/2/3 249/2/3
f 255/3/3 251/3/3 250/3/3
f 255/2/3 250/2/3 254/2/3
f 256/3/3 251/3/3 255/3/3
f 257/3/3 251/3/3 256/3/3
f 258/3/3 251/3/3 257/3/3
f 259/3/3 251/3/3 258/3/3
f 260/3/3 251/3/3 259/3/3
f 261/3/3 253/3/3 252/3/3
f 262/3/3 253/3/3 261/3/3
f 268/3/3 264/3/3 263/3/3
f 271/3/3 268/3/3 267/3/3
f 272/2/3 270/2/3 269/2/3
f 273/3/3 271/3/3 270/3/3
f 273/2/3 270/2/3 272/2/3
f 274/3/3 264/3/3 268/3/3
f 274/3/3 271/3/3 273/3/3
f 274/3/3 268/3/3 271/3/3
f 275/3/3 266/3/3 265/3/3
f 276/3/3 266/3/3 275/3/3
f 279/4/3 278/4/3 277/4/3
f 280/4/3 278/4/3 279/4/3
f 283/4/3 282/4/3 281/4/3
f 284/4/3 282/4/3 283/4/3
f 287/1/3 286/1/3 285/1/3
f 288/1/3 286/1/3 287/1/3
f 289/1/4 290/1/4 291/1/4
f 291/1/4 290/1/4 292/1/4
f 293/4/4 294/4/4 295/4/4
f 295/4/4 294/4/4 296/4/4
f 297/4/4 298/4/4 299/4/4
f 299/4/4 298/4/4 300/4/4
f 301/2/4 302/2/4 306/2/4
f 302/3/4 303/3/4 307/3/4
f 306/2/4 302/2/4 307/2/4
f 307/3/4 303/3/4 308/3/4
f 308/3/4 303/3/4 309/3/4
f 309/3/4 303/3/4 310/3/4
f 310/3/4 303/3/4 311/3/4
f 311/3/4 303/3/4 312/3/4
f 304/3/4 305/3/4 313/3/4
f 313/3/4 305/3/4 314/3/4
f 315/3/4 316/3/4 320/3/4
f 319/3/4 320/3/4 323/3/4
f 321/2/4 322/2/4 324/2/4
f 322/3/4 323/3/4 325/3/4
f 324/2/4 322/2/4 325/2/4
f 320/3/4 316/3/4 326/3/4
f 325/3/4 323/3/4 326/3/4
f 323/3/4 320/3/4 326/3/4
f 317/3/4 318/3/4 327/3/4
f 327/3/4 318/3/4 328/3/4
f 329/4/4 330/4/4 331/4/4
f 331/4/4 330/4/4 332/4/4
f 332/4/4 333/4/4 335/4/4
f 335/4/4 333/4/4 336/4/4
f 334/4/4 335/4/4 337/4/4
f 337/4/4 335/4/4 338/4/4
f 339/4/4 340/4/4 341/4/4
f 339/4/4 341/4/4 343/4/4
f 341/4/4 342/4/4 343/4/4
f 343/4/4 342/4/4 344/4/4
f 339/4/4 343/4/4 345/4/4
f 345/4/4 343/4/4 346/4/4
f 347/2/4 348/2/4 349/2/4
f 349/2/4 348/2/4 350/2/4
f 351/2/4 352/2/4 354/2/4
f 352/2/4 353/2/4 354/2/4
f 354/2/4 353/2/4 355/2/4
f 355/2/4 353/2/4 356/2/4
f 357/4/4 358/4/4 359/4/4
f 359/4/4 358/4/4 360/4/4
f 361/4/4 362/4/4 363/4/4
f 363/4/4 362/4/4 364/4/4
f 365/3/4 366/3/4 369/3/4
f 369/3/4 366/3/4 370/3/4
f 367/3/4 368/3/4 371/3/4
f 371/3/4 368/3/4 372/3/4
f 373/3/4 374/3/4 377/3/4
f 377/3/4 374/3/4 378/3/4
f 375/3/4 376/3/4 379/3/4
f 379/3/4 376/3/4 380/3/4
f 381/1/4 382/1/4 383/1/4
f 383/1/4 382/1/4 384/1/4
f 387/1/5 386/1/5 385/1/5
f 388/1/5 386/1/5 387/1/5
f 393/3/5 390/3/5 389/3/5
f 394/3/5 390/3/5 393/3/5
f 395/3/5 392/3/5 391/3/5
f 396/3/5 392/3/5 395/3/5
f 397/3/5 393/3/5 389/3/5
f 398/3/5 390/3/5 394/3/5
f 399/3/5 395/3/5 391/3/5
f 400/3/5 392/3/5 396/3/5
f 401/3/5 397/3/5 389/3/5
f 401/3/5 398/3/5 397/3/5
f 402/3/5 390/3/5 398/3/5
f 402/3/5 398/3/5 401/3/5
f 403/3/5 400/3/5 399/3/5
f 403/3/5 399/3/5 391/3/5
f 404/3/5 392/3/5 400/3/5
f 404/3/5 400/3/5 403/3/5
f 409/3/5 406/3/5 405/3/5
f 410/3/5 406/3/5 409/3/5
f 411/3/5 408/3/5 407/3/5
f 412/3/5 408/3/5 411/3/5
f 413/3/5 409/3/5 405/3/5
f 414/3/5 406/3/5 410/3/5
f 415/3/5 411/3/5 407/3/5
f 416/3/5 408/3/5 412/3/5
f 417/3/5 413/3/5 405/3/5
f 417/3/5 414/3/5 413/3/5
f 418/3/5 406/3/5 414/3/5
f 418/3/5 414/3/5 417/3/5
f 419/3/5 416/3/5 415/3/5
f 419/3/5 415/3/5 407/3/5
f 420/3/5 408/3/5 416/3/5
f 420/3/5 416/3/5 419/3/5
f 421/1/6 422/1/6 423/1/6
f 423/1/6 422/1/6 424/1/6
f 425/1/6 426/1/6 429/1/6
f 429/1/6 426/1/6 430/1/6
f 427/1/6 428/1/6 431/1/6
f 431/1/6 428/1/6 432/1/6
f 433/1/6 434/1/6 435/1/6
f 435/1/6 434/1/6 436/1/6
f 437/1/6 438/1/6 439/1/6
f 439/1/6 438/1/6 440/1/6
f 440/1/6 438/1/6 441/1/6
f 441/1/6 438/1/6 442/1/6
f 437/1/6 439/1/6 443/1/6
f 442/1/6 438/1/6 444/1/6
f 437/1/6 443/1/6 445/1/6
f 444/1/6 438/1/6 446/1/6
f 437/1/6 445/1/6 447/1/6
f 446/1/6 438/1/6 450/1/6
f 448/1/6 449/1/6 451/1/6
f 449/1/6 450/1/6 451/1/6
f 437/1/6 447/1/6 451/1/6
f 447/1/6 448/1/6 451/1/6
f 450/1/6 438/1/6 452/1/6
f 451/1/6 450/1/6 452/1/6
f 453/2/6 454/2/6 455/2/6
f 455/2/6 454/2/6 456/2/6
f 457/2/6 458/2/6 461/2/6
f 461/2/6 458/2/6 462/2/6
f 459/2/6 460/2/6 463/2/6
f 463/2/6 460/2/6 464/2/6
f 465/2/6 466/2/6 467/2/6
f 467/2/6 466/2/6 468/2/6
f 469/2/6 470/2/6 472/2/6
f 472/2/6 470/2/6 473/2/6
f 471/2/6 472/2/6 475/2/6
f 473/2/6 474/2/6 475/2/6
f 472/2/6 473/2/6 475/2/6
f 475/2/6 474/2/6 476/2/6
f 471/2/6 475/2/6 477/2/6
f 476/2/6 474/2/6 478/2/6
f 471/2/6 477/2/6 479/2/6
f 477/2/6 478/2/6 479/2/6
f 479/2/6 478/2/6 480/2/6
f 478/2/6 474/2/6 481/2/6
f 480/2/6 478/2/6 481/2/6
f 481/2/6 474/2/6 482/2/6
f 480/2/6 481/2/6 483/2/6
f 483/2/6 481/2/6 484/2/6
f 485/4/6 486/4/6 489/4/6
f 489/4/6 486/4/6 490/4/6
f 487/4/6 488/4/6 491/4/6
f 491/4/6 488/4/6 492/4/6
f 493/4/6 494/4/6 497/4/6
f 497/4/6 494/4/6 498/4/6
f 495/4/6 496/4/6 499/4/6
f 499/4/6 496/4/6 500/4/6
f 501/4/6 502/4/6 504/4/6
f 504/4/6 502/4/6 505/4/6
f 503/4/6 504/4/6 507/4/6
f 507/4/6 504/4/6 508/4/6
f 505/4/6 506/4/6 509/4/6
f 509/4/6 506/4/6 510/4/6
f 508/4/6 509/4/6 511/4/6
f 511/4/6 509/4/6 512/4/6
f 513/4/6 514/4/6 515/4/6
f 515/4/6 514/4/6 516/4/6
f 517/3/6 518/3/6 521/3/6
f 521/3/6 518/3/6 522/3/6
f 519/3/6 520/3/6 523/3/6
f 523/3/6 520/3/6 524/3/6
f 517/3/6 521/3/6 525/3/6
f 522/3/6 518/3/6 526/3/6
f 519/3/6 523/3/6 527/3/6
f 524/3/6 520/3/6 528/3/6
f 517/3/6 525/3/6 529/3/6
f 525/3/6 526/3/6 529/3/6
f 526/3/6 518/3/6 530/3/6
f 529/3/6 526/3/6 530/3/6
f 527/3/6 528/3/6 531/3/6
f 519/3/6 527/3/6 531/3/6
f 528/3/6 520/3/6 532/3/6
f 531/3/6 528/3/6 532/3/6
f 533/3/6 534/3/6 537/3/6
f 537/3/6 534/3/6 538/3/6
f 535/3/6 536/3/6 539/3/6
f 539/3/6 536/3/6 540/3/6
f 533/3/6 537/3/6 541/3/6
f 538/3/6 534/3/6 542/3/6
f 535/3/6 539/3/6 543/3/6
f 540/3/6 536/3/6 544/3/6
f 533/3/6 541/3/6 545/3/6
f 541/3/6 542/3/6 545/3/6
f 542/3/6 534/3/6 546/3/6
f 545/3/6 542/3/6 546/3/6
f 543/3/6 544/3/6 547/3/6
f 535/3/6 543/3/6 547/3/6
f 544/3/6 536/3/6 548/3/6
f 547/3/6 544/3/6 548/3/6
f 549/3/6 550/3/6 553/3/6
f 553/3/6 550/3/6 554/3/6
f 551/3/6 552/3/6 555/3/6
f 555/3/6 552/3/6 556/3/6
f 557/3/6 558/3/6 561/3/6
f 561/3/6 558/3/6 562/3/6
f 559/3/6 560/3/6 563/3/6
f 563/3/6 560/3/6 564/3/6
