# MagicaVoxel @ Ephtracy

# group
o Default

# material
mtllib Watcher.mtl
usemtl palette

# normals
vn -1 0 0
vn 1 0 0
vn 0 0 1
vn 0 0 -1
vn 0 -1 0
vn 0 1 0

# texcoords
vt 0.599609 0.5
vt 0.673828 0.5

# verts
v -0.5 1.6 0.1
v -0.5 1.6 -0.2
v -0.5 1.8 0.1
v -0.5 1.8 -0.2
v -0.5 1.9 0.1
v -0.5 1.9 -0.2
v -0.5 2.7 0.1
v -0.5 2.7 -0.2
v -0.5 2.8 0.1
v -0.5 2.8 -0.2
v -0.5 2.9 0.1
v -0.5 2.9 -0.2
v -0.3 0.9 0.1
v -0.3 0.9 -0.2
v -0.3 1.1 0.2
v -0.3 1.1 0.1
v -0.3 1.1 -0.2
v -0.3 1.1 -0.3
v -0.3 1.6 0.1
v -0.3 1.6 -0.2
v -0.3 1.8 0.1
v -0.3 1.8 -0.2
v -0.3 1.9 0.1
v -0.3 1.9 -0.2
v -0.3 2.7 0.1
v -0.3 2.7 -0.2
v -0.3 2.8 0.1
v -0.3 2.8 -0.2
v -0.3 2.9 0.1
v -0.3 2.9 -0.2
v -0.3 3 0.2
v -0.3 3 -0.3
v -0.2 0.9 0.2
v -0.2 0.9 0.1
v -0.2 0.9 -0.2
v -0.2 0.9 -0.3
v -0.2 1.1 0.2
v -0.2 1.1 0.1
v -0.2 1.1 -0.2
v -0.2 1.1 -0.3
v -0.2 3.1 0.1
v -0.2 3.1 -0.2
v -0.2 3.6 0.1
v -0.2 3.6 -0.2
v -0.1 2.4 0.1
v -0.1 2.4 -0.2
v -0.1 2.6 0.1
v -0.1 2.6 -0.2
v 0.1 2.8 0.2
v 0.1 2.8 0.1
v 0.1 2.9 0.2
v 0.1 2.9 0.1
v 0.1 3.2 0.1
v 0.1 3.2 0
v 0.1 3.4 0.1
v 0.1 3.4 0
v 0.2 2.3 0.2
v 0.2 2.3 -0.3
v 0.2 2.7 0.2
v 0.2 2.7 -0.3
v -0.2 2.3 0.2
v -0.2 2.3 -0.3
v -0.2 2.7 0.2
v -0.2 2.7 -0.3
v -0.1 2.8 0.2
v -0.1 2.8 0.1
v -0.1 2.9 0.2
v -0.1 2.9 0.1
v -0.1 3.2 0.1
v -0.1 3.2 0
v -0.1 3.4 0.1
v -0.1 3.4 0
v 0.1 2.4 0.1
v 0.1 2.4 -0.2
v 0.1 2.6 0.1
v 0.1 2.6 -0.2
v 0.2 0.9 0.2
v 0.2 0.9 0.1
v 0.2 0.9 -0.2
v 0.2 0.9 -0.3
v 0.2 1.1 0.2
v 0.2 1.1 0.1
v 0.2 1.1 -0.2
v 0.2 1.1 -0.3
v 0.2 3.1 0.1
v 0.2 3.1 -0.2
v 0.2 3.6 0.1
v 0.2 3.6 -0.2
v 0.3 0.9 0.1
v 0.3 0.9 -0.2
v 0.3 1.1 0.2
v 0.3 1.1 0.1
v 0.3 1.1 -0.2
v 0.3 1.1 -0.3
v 0.3 1.6 0.1
v 0.3 1.6 -0.2
v 0.3 1.8 0.1
v 0.3 1.8 -0.2
v 0.3 1.9 0.1
v 0.3 1.9 -0.2
v 0.3 2.7 0.1
v 0.3 2.7 -0.2
v 0.3 2.8 0.1
v 0.3 2.8 -0.2
v 0.3 2.9 0.1
v 0.3 2.9 -0.2
v 0.3 3 0.2
v 0.3 3 -0.3
v 0.5 1.6 0.1
v 0.5 1.6 -0.2
v 0.5 1.8 0.1
v 0.5 1.8 -0.2
v 0.5 1.9 0.1
v 0.5 1.9 -0.2
v 0.5 2.7 0.1
v 0.5 2.7 -0.2
v 0.5 2.8 0.1
v 0.5 2.8 -0.2
v 0.5 2.9 0.1
v 0.5 2.9 -0.2
v -0.3 1.1 0.2
v -0.3 3 0.2
v -0.2 0.9 0.2
v -0.2 1.1 0.2
v -0.2 2.3 0.2
v -0.2 2.7 0.2
v -0.1 2.8 0.2
v -0.1 2.9 0.2
v 0.1 2.8 0.2
v 0.1 2.9 0.2
v 0.2 0.9 0.2
v 0.2 1.1 0.2
v 0.2 2.3 0.2
v 0.2 2.7 0.2
v 0.3 1.1 0.2
v 0.3 3 0.2
v -0.5 1.6 0.1
v -0.5 1.8 0.1
v -0.5 1.9 0.1
v -0.5 2.7 0.1
v -0.5 2.8 0.1
v -0.5 2.9 0.1
v -0.3 0.9 0.1
v -0.3 1.1 0.1
v -0.3 1.6 0.1
v -0.3 1.8 0.1
v -0.3 1.9 0.1
v -0.3 2.7 0.1
v -0.3 2.8 0.1
v -0.3 2.9 0.1
v -0.2 0.9 0.1
v -0.2 1.1 0.1
v -0.2 3.1 0.1
v -0.2 3.6 0.1
v -0.1 2.4 0.1
v -0.1 2.6 0.1
v -0.1 2.8 0.1
v -0.1 2.9 0.1
v -0.1 3.2 0.1
v -0.1 3.4 0.1
v 0.1 2.4 0.1
v 0.1 2.6 0.1
v 0.1 2.8 0.1
v 0.1 2.9 0.1
v 0.1 3.2 0.1
v 0.1 3.4 0.1
v 0.2 0.9 0.1
v 0.2 1.1 0.1
v 0.2 3.1 0.1
v 0.2 3.6 0.1
v 0.3 0.9 0.1
v 0.3 1.1 0.1
v 0.3 1.6 0.1
v 0.3 1.8 0.1
v 0.3 1.9 0.1
v 0.3 2.7 0.1
v 0.3 2.8 0.1
v 0.3 2.9 0.1
v 0.5 1.6 0.1
v 0.5 1.8 0.1
v 0.5 1.9 0.1
v 0.5 2.7 0.1
v 0.5 2.8 0.1
v 0.5 2.9 0.1
v -0.1 3.2 0
v -0.1 3.4 0
v 0.1 3.2 0
v 0.1 3.4 0
v -0.5 1.6 -0.2
v -0.5 1.8 -0.2
v -0.5 1.9 -0.2
v -0.5 2.7 -0.2
v -0.5 2.8 -0.2
v -0.5 2.9 -0.2
v -0.3 0.9 -0.2
v -0.3 1.1 -0.2
v -0.3 1.6 -0.2
v -0.3 1.8 -0.2
v -0.3 1.9 -0.2
v -0.3 2.7 -0.2
v -0.3 2.8 -0.2
v -0.3 2.9 -0.2
v -0.2 0.9 -0.2
v -0.2 1.1 -0.2
v -0.2 3.1 -0.2
v -0.2 3.6 -0.2
v -0.1 2.4 -0.2
v -0.1 2.6 -0.2
v 0.1 2.4 -0.2
v 0.1 2.6 -0.2
v 0.2 0.9 -0.2
v 0.2 1.1 -0.2
v 0.2 3.1 -0.2
v 0.2 3.6 -0.2
v 0.3 0.9 -0.2
v 0.3 1.1 -0.2
v 0.3 1.6 -0.2
v 0.3 1.8 -0.2
v 0.3 1.9 -0.2
v 0.3 2.7 -0.2
v 0.3 2.8 -0.2
v 0.3 2.9 -0.2
v 0.5 1.6 -0.2
v 0.5 1.8 -0.2
v 0.5 1.9 -0.2
v 0.5 2.7 -0.2
v 0.5 2.8 -0.2
v 0.5 2.9 -0.2
v -0.3 1.1 -0.3
v -0.3 3 -0.3
v -0.2 0.9 -0.3
v -0.2 1.1 -0.3
v -0.2 2.3 -0.3
v -0.2 2.7 -0.3
v 0.2 0.9 -0.3
v 0.2 1.1 -0.3
v 0.2 2.3 -0.3
v 0.2 2.7 -0.3
v 0.3 1.1 -0.3
v 0.3 3 -0.3
v -0.2 0.9 0.2
v 0.2 0.9 0.2
v -0.3 0.9 0.1
v -0.2 0.9 0.1
v 0.2 0.9 0.1
v 0.3 0.9 0.1
v -0.3 0.9 -0.2
v -0.2 0.9 -0.2
v 0.2 0.9 -0.2
v 0.3 0.9 -0.2
v -0.2 0.9 -0.3
v 0.2 0.9 -0.3
v -0.3 1.1 0.2
v -0.2 1.1 0.2
v 0.2 1.1 0.2
v 0.3 1.1 0.2
v -0.3 1.1 0.1
v -0.2 1.1 0.1
v 0.2 1.1 0.1
v 0.3 1.1 0.1
v -0.3 1.1 -0.2
v -0.2 1.1 -0.2
v 0.2 1.1 -0.2
v 0.3 1.1 -0.2
v -0.3 1.1 -0.3
v -0.2 1.1 -0.3
v 0.2 1.1 -0.3
v 0.3 1.1 -0.3
v -0.5 1.6 0.1
v -0.3 1.6 0.1
v 0.3 1.6 0.1
v 0.5 1.6 0.1
v -0.5 1.6 -0.2
v -0.3 1.6 -0.2
v 0.3 1.6 -0.2
v 0.5 1.6 -0.2
v -0.1 2.4 0.1
v 0.1 2.4 0.1
v -0.1 2.4 -0.2
v 0.1 2.4 -0.2
v -0.2 2.7 0.2
v 0.2 2.7 0.2
v -0.2 2.7 -0.3
v 0.2 2.7 -0.3
v -0.1 2.9 0.2
v 0.1 2.9 0.2
v -0.1 2.9 0.1
v 0.1 2.9 0.1
v -0.2 3.1 0.1
v 0.2 3.1 0.1
v -0.2 3.1 -0.2
v 0.2 3.1 -0.2
v -0.1 3.4 0.1
v 0.1 3.4 0.1
v -0.1 3.4 0
v 0.1 3.4 0
v -0.2 2.3 0.2
v 0.2 2.3 0.2
v -0.2 2.3 -0.3
v 0.2 2.3 -0.3
v -0.1 2.6 0.1
v 0.1 2.6 0.1
v -0.1 2.6 -0.2
v 0.1 2.6 -0.2
v -0.1 2.8 0.2
v 0.1 2.8 0.2
v -0.1 2.8 0.1
v 0.1 2.8 0.1
v -0.5 2.9 0.1
v -0.3 2.9 0.1
v 0.3 2.9 0.1
v 0.5 2.9 0.1
v -0.5 2.9 -0.2
v -0.3 2.9 -0.2
v 0.3 2.9 -0.2
v 0.5 2.9 -0.2
v -0.3 3 0.2
v 0.3 3 0.2
v -0.3 3 -0.3
v 0.3 3 -0.3
v -0.1 3.2 0.1
v 0.1 3.2 0.1
v -0.1 3.2 0
v 0.1 3.2 0
v -0.2 3.6 0.1
v 0.2 3.6 0.1
v -0.2 3.6 -0.2
v 0.2 3.6 -0.2

# faces
f 3/2/1 2/2/1 1/2/1
f 4/2/1 2/2/1 3/2/1
f 5/1/1 4/1/1 3/1/1
f 6/1/1 4/1/1 5/1/1
f 7/2/1 6/2/1 5/2/1
f 8/2/1 6/2/1 7/2/1
f 9/1/1 8/1/1 7/1/1
f 10/1/1 8/1/1 9/1/1
f 11/2/1 10/2/1 9/2/1
f 12/2/1 10/2/1 11/2/1
f 16/2/1 14/2/1 13/2/1
f 17/2/1 14/2/1 16/2/1
f 19/2/1 16/2/1 15/2/1
f 19/2/1 18/2/1 17/2/1
f 19/2/1 17/2/1 16/2/1
f 20/2/1 18/2/1 19/2/1
f 21/2/1 19/2/1 15/2/1
f 22/2/1 18/2/1 20/2/1
f 23/2/1 21/2/1 15/2/1
f 24/2/1 18/2/1 22/2/1
f 25/2/1 23/2/1 15/2/1
f 26/2/1 18/2/1 24/2/1
f 27/2/1 25/2/1 15/2/1
f 28/2/1 18/2/1 26/2/1
f 29/2/1 27/2/1 15/2/1
f 30/2/1 18/2/1 28/2/1
f 31/2/1 29/2/1 15/2/1
f 31/2/1 30/2/1 29/2/1
f 32/2/1 18/2/1 30/2/1
f 32/2/1 30/2/1 31/2/1
f 37/2/1 34/2/1 33/2/1
f 38/2/1 34/2/1 37/2/1
f 39/2/1 36/2/1 35/2/1
f 40/2/1 36/2/1 39/2/1
f 43/2/1 42/2/1 41/2/1
f 44/2/1 42/2/1 43/2/1
f 47/1/1 46/1/1 45/1/1
f 48/1/1 46/1/1 47/1/1
f 51/2/1 50/2/1 49/2/1
f 52/2/1 50/2/1 51/2/1
f 55/2/1 54/2/1 53/2/1
f 56/2/1 54/2/1 55/2/1
f 59/2/1 58/2/1 57/2/1
f 60/2/1 58/2/1 59/2/1
f 61/2/2 62/2/2 63/2/2
f 63/2/2 62/2/2 64/2/2
f 65/2/2 66/2/2 67/2/2
f 67/2/2 66/2/2 68/2/2
f 69/2/2 70/2/2 71/2/2
f 71/2/2 70/2/2 72/2/2
f 73/1/2 74/1/2 75/1/2
f 75/1/2 74/1/2 76/1/2
f 77/2/2 78/2/2 81/2/2
f 81/2/2 78/2/2 82/2/2
f 79/2/2 80/2/2 83/2/2
f 83/2/2 80/2/2 84/2/2
f 85/2/2 86/2/2 87/2/2
f 87/2/2 86/2/2 88/2/2
f 89/2/2 90/2/2 92/2/2
f 92/2/2 90/2/2 93/2/2
f 91/2/2 92/2/2 95/2/2
f 93/2/2 94/2/2 95/2/2
f 92/2/2 93/2/2 95/2/2
f 95/2/2 94/2/2 96/2/2
f 91/2/2 95/2/2 97/2/2
f 96/2/2 94/2/2 98/2/2
f 91/2/2 97/2/2 99/2/2
f 98/2/2 94/2/2 100/2/2
f 91/2/2 99/2/2 101/2/2
f 100/2/2 94/2/2 102/2/2
f 91/2/2 101/2/2 103/2/2
f 102/2/2 94/2/2 104/2/2
f 91/2/2 103/2/2 105/2/2
f 104/2/2 94/2/2 106/2/2
f 91/2/2 105/2/2 107/2/2
f 105/2/2 106/2/2 107/2/2
f 106/2/2 94/2/2 108/2/2
f 107/2/2 106/2/2 108/2/2
f 109/2/2 110/2/2 111/2/2
f 111/2/2 110/2/2 112/2/2
f 111/1/2 112/1/2 113/1/2
f 113/1/2 112/1/2 114/1/2
f 113/2/2 114/2/2 115/2/2
f 115/2/2 114/2/2 116/2/2
f 115/1/2 116/1/2 117/1/2
f 117/1/2 116/1/2 118/1/2
f 117/2/2 118/2/2 119/2/2
f 119/2/2 118/2/2 120/2/2
f 124/2/3 122/2/3 121/2/3
f 125/2/3 122/2/3 124/2/3
f 126/2/3 122/2/3 125/2/3
f 127/2/3 122/2/3 126/2/3
f 128/2/3 122/2/3 127/2/3
f 129/2/3 127/2/3 126/2/3
f 130/2/3 122/2/3 128/2/3
f 131/2/3 124/2/3 123/2/3
f 131/2/3 125/2/3 124/2/3
f 132/2/3 125/2/3 131/2/3
f 133/2/3 125/2/3 132/2/3
f 134/2/3 130/2/3 129/2/3
f 134/2/3 129/2/3 126/2/3
f 135/2/3 133/2/3 132/2/3
f 135/2/3 134/2/3 133/2/3
f 136/2/3 130/2/3 134/2/3
f 136/2/3 134/2/3 135/2/3
f 136/2/3 122/2/3 130/2/3
f 145/2/3 138/2/3 137/2/3
f 146/1/3 139/1/3 138/1/3
f 146/2/3 138/2/3 145/2/3
f 147/2/3 140/2/3 139/2/3
f 147/1/3 139/1/3 146/1/3
f 148/1/3 141/1/3 140/1/3
f 148/2/3 140/2/3 147/2/3
f 149/2/3 142/2/3 141/2/3
f 149/1/3 141/1/3 148/1/3
f 150/2/3 142/2/3 149/2/3
f 151/2/3 144/2/3 143/2/3
f 152/2/3 144/2/3 151/2/3
f 159/2/3 154/2/3 153/2/3
f 160/2/3 154/2/3 159/2/3
f 161/1/3 156/1/3 155/1/3
f 162/1/3 156/1/3 161/1/3
f 163/1/3 158/1/3 157/1/3
f 164/1/3 158/1/3 163/1/3
f 165/2/3 159/2/3 153/2/3
f 166/2/3 154/2/3 160/2/3
f 169/2/3 166/2/3 165/2/3
f 169/2/3 165/2/3 153/2/3
f 170/2/3 154/2/3 166/2/3
f 170/2/3 166/2/3 169/2/3
f 171/2/3 168/2/3 167/2/3
f 172/2/3 168/2/3 171/2/3
f 179/2/3 174/2/3 173/2/3
f 180/1/3 175/1/3 174/1/3
f 180/2/3 174/2/3 179/2/3
f 181/2/3 176/2/3 175/2/3
f 181/1/3 175/1/3 180/1/3
f 182/1/3 177/1/3 176/1/3
f 182/2/3 176/2/3 181/2/3
f 183/2/3 178/2/3 177/2/3
f 183/1/3 177/1/3 182/1/3
f 184/2/3 178/2/3 183/2/3
f 187/1/3 186/1/3 185/1/3
f 188/1/3 186/1/3 187/1/3
f 189/2/4 190/2/4 197/2/4
f 190/1/4 191/1/4 198/1/4
f 197/2/4 190/2/4 198/2/4
f 191/2/4 192/2/4 199/2/4
f 198/1/4 191/1/4 199/1/4
f 192/1/4 193/1/4 200/1/4
f 199/2/4 192/2/4 200/2/4
f 193/2/4 194/2/4 201/2/4
f 200/1/4 193/1/4 201/1/4
f 201/2/4 194/2/4 202/2/4
f 195/2/4 196/2/4 203/2/4
f 203/2/4 196/2/4 204/2/4
f 207/1/4 208/1/4 209/1/4
f 209/1/4 208/1/4 210/1/4
f 205/2/4 206/2/4 213/2/4
f 213/2/4 206/2/4 214/2/4
f 211/2/4 212/2/4 215/2/4
f 215/2/4 212/2/4 216/2/4
f 217/2/4 218/2/4 223/2/4
f 218/1/4 219/1/4 224/1/4
f 223/2/4 218/2/4 224/2/4
f 219/2/4 220/2/4 225/2/4
f 224/1/4 219/1/4 225/1/4
f 220/1/4 221/1/4 226/1/4
f 225/2/4 220/2/4 226/2/4
f 221/2/4 222/2/4 227/2/4
f 226/1/4 221/1/4 227/1/4
f 227/2/4 222/2/4 228/2/4
f 229/2/4 230/2/4 232/2/4
f 232/2/4 230/2/4 233/2/4
f 233/2/4 230/2/4 234/2/4
f 231/2/4 232/2/4 235/2/4
f 232/2/4 233/2/4 235/2/4
f 235/2/4 233/2/4 236/2/4
f 236/2/4 233/2/4 237/2/4
f 234/2/4 230/2/4 238/2/4
f 236/2/4 237/2/4 239/2/4
f 237/2/4 238/2/4 239/2/4
f 238/2/4 230/2/4 240/2/4
f 239/2/4 238/2/4 240/2/4
f 244/2/5 242/2/5 241/2/5
f 245/2/5 242/2/5 244/2/5
f 247/2/5 244/2/5 243/2/5
f 247/2/5 246/2/5 245/2/5
f 247/2/5 245/2/5 244/2/5
f 248/2/5 246/2/5 247/2/5
f 249/2/5 246/2/5 248/2/5
f 250/2/5 246/2/5 249/2/5
f 251/2/5 249/2/5 248/2/5
f 252/2/5 249/2/5 251/2/5
f 257/2/5 254/2/5 253/2/5
f 258/2/5 254/2/5 257/2/5
f 259/2/5 256/2/5 255/2/5
f 260/2/5 256/2/5 259/2/5
f 265/2/5 262/2/5 261/2/5
f 266/2/5 262/2/5 265/2/5
f 267/2/5 264/2/5 263/2/5
f 268/2/5 264/2/5 267/2/5
f 273/2/5 270/2/5 269/2/5
f 274/2/5 270/2/5 273/2/5
f 275/2/5 272/2/5 271/2/5
f 276/2/5 272/2/5 275/2/5
f 279/1/5 278/1/5 277/1/5
f 280/1/5 278/1/5 279/1/5
f 283/2/5 282/2/5 281/2/5
f 284/2/5 282/2/5 283/2/5
f 287/2/5 286/2/5 285/2/5
f 288/2/5 286/2/5 287/2/5
f 291/2/5 290/2/5 289/2/5
f 292/2/5 290/2/5 291/2/5
f 295/2/5 294/2/5 293/2/5
f 296/2/5 294/2/5 295/2/5
f 297/2/6 298/2/6 299/2/6
f 299/2/6 298/2/6 300/2/6
f 301/1/6 302/1/6 303/1/6
f 303/1/6 302/1/6 304/1/6
f 305/2/6 306/2/6 307/2/6
f 307/2/6 306/2/6 308/2/6
f 309/2/6 310/2/6 313/2/6
f 313/2/6 310/2/6 314/2/6
f 311/2/6 312/2/6 315/2/6
f 315/2/6 312/2/6 316/2/6
f 317/2/6 318/2/6 319/2/6
f 319/2/6 318/2/6 320/2/6
f 321/2/6 322/2/6 323/2/6
f 323/2/6 322/2/6 324/2/6
f 325/2/6 326/2/6 327/2/6
f 327/2/6 326/2/6 328/2/6
