# MagicaVoxel @ Ephtracy

# group
o Default

# material
mtllib torso.mtl
usemtl palette

# normals
vn -1 0 0
vn 1 0 0
vn 0 0 1
vn 0 0 -1
vn 0 -1 0
vn 0 1 0

# texcoords
vt 0.599609 0.5
vt 0.638672 0.5
vt 0.673828 0.5
vt 0.978516 0.5
vt 0.982422 0.5

# verts
v -0.4 -0.2 0.2
v -0.4 -0.2 -0.3
v -0.4 0.6 0.2
v -0.4 0.6 -0.3
v -0.3 -0.1 -0.3
v -0.3 -0.1 -0.5
v -0.3 0.3 -0.3
v -0.3 0.3 -0.4
v -0.3 0.3 -0.5
v -0.3 0.4 -0.3
v -0.3 0.4 -0.4
v -0.3 0.4 -0.5
v -0.3 0.5 -0.3
v -0.3 0.5 -0.5
v -0.2 -0.4 0
v -0.2 -0.4 -0.1
v -0.2 -0.3 0.1
v -0.2 -0.3 0
v -0.2 -0.3 -0.1
v -0.2 -0.3 -0.2
v -0.2 -0.2 0.1
v -0.2 -0.2 -0.2
v -0.1 -0.4 0.1
v -0.1 -0.4 0
v -0.1 -0.4 -0.1
v -0.1 -0.4 -0.2
v -0.1 -0.3 0.1
v -0.1 -0.3 0
v -0.1 -0.3 -0.1
v -0.1 -0.3 -0.2
v 0.1 -0.1 -0.3
v 0.1 -0.1 -0.5
v 0.1 0.3 -0.3
v 0.1 0.3 -0.4
v 0.1 0.3 -0.5
v 0.1 0.4 -0.3
v 0.1 0.4 -0.4
v 0.1 0.4 -0.5
v 0.1 0.5 -0.3
v 0.1 0.5 -0.5
v -0.1 -0.1 -0.3
v -0.1 -0.1 -0.5
v -0.1 0.3 -0.3
v -0.1 0.3 -0.4
v -0.1 0.3 -0.5
v -0.1 0.4 -0.3
v -0.1 0.4 -0.4
v -0.1 0.4 -0.5
v -0.1 0.5 -0.3
v -0.1 0.5 -0.5
v 0.1 -0.4 0.1
v 0.1 -0.4 0
v 0.1 -0.4 -0.1
v 0.1 -0.4 -0.2
v 0.1 -0.3 0.1
v 0.1 -0.3 0
v 0.1 -0.3 -0.1
v 0.1 -0.3 -0.2
v 0.2 -0.4 0
v 0.2 -0.4 -0.1
v 0.2 -0.3 0.1
v 0.2 -0.3 0
v 0.2 -0.3 -0.1
v 0.2 -0.3 -0.2
v 0.2 -0.2 0.1
v 0.2 -0.2 -0.2
v 0.3 -0.1 -0.3
v 0.3 -0.1 -0.5
v 0.3 0.3 -0.3
v 0.3 0.3 -0.4
v 0.3 0.3 -0.5
v 0.3 0.4 -0.3
v 0.3 0.4 -0.4
v 0.3 0.4 -0.5
v 0.3 0.5 -0.3
v 0.3 0.5 -0.5
v 0.4 -0.2 0.2
v 0.4 -0.2 -0.3
v 0.4 0.6 0.2
v 0.4 0.6 -0.3
v -0.4 -0.2 0.2
v -0.4 0.6 0.2
v -0.3 -0.1 0.2
v -0.3 0.5 0.2
v -0.2 0.1 0.2
v -0.2 0.2 0.2
v -0.2 0.3 0.2
v -0.2 0.4 0.2
v -0.1 0.1 0.2
v -0.1 0.2 0.2
v -0.1 0.3 0.2
v -0.1 0.4 0.2
v -5.96046e-08 0.2 0.2
v -5.96046e-08 0.3 0.2
v 0.3 -0.1 0.2
v 0.3 0.5 0.2
v 0.4 -0.2 0.2
v 0.4 0.6 0.2
v -0.2 -0.3 0.1
v -0.2 -0.2 0.1
v -0.1 -0.4 0.1
v -0.1 -0.3 0.1
v 0.1 -0.4 0.1
v 0.1 -0.3 0.1
v 0.2 -0.3 0.1
v 0.2 -0.2 0.1
v -0.2 -0.4 0
v -0.2 -0.3 0
v -0.1 -0.4 0
v -0.1 -0.3 0
v 0.1 -0.4 0
v 0.1 -0.3 0
v 0.2 -0.4 0
v 0.2 -0.3 0
v -0.2 -0.4 -0.1
v -0.2 -0.3 -0.1
v -0.1 -0.4 -0.1
v -0.1 -0.3 -0.1
v 0.1 -0.4 -0.1
v 0.1 -0.3 -0.1
v 0.2 -0.4 -0.1
v 0.2 -0.3 -0.1
v -0.2 -0.3 -0.2
v -0.2 -0.2 -0.2
v -0.1 -0.4 -0.2
v -0.1 -0.3 -0.2
v 0.1 -0.4 -0.2
v 0.1 -0.3 -0.2
v 0.2 -0.3 -0.2
v 0.2 -0.2 -0.2
v -0.4 -0.2 -0.3
v -0.4 0.6 -0.3
v -0.3 -0.1 -0.3
v -0.3 0.3 -0.3
v -0.3 0.4 -0.3
v -0.3 0.5 -0.3
v -0.1 -0.1 -0.3
v -0.1 0.3 -0.3
v -0.1 0.4 -0.3
v -0.1 0.5 -0.3
v 0.1 -0.1 -0.3
v 0.1 0.3 -0.3
v 0.1 0.4 -0.3
v 0.1 0.5 -0.3
v 0.3 -0.1 -0.3
v 0.3 0.3 -0.3
v 0.3 0.4 -0.3
v 0.3 0.5 -0.3
v 0.4 -0.2 -0.3
v 0.4 0.6 -0.3
v -0.3 0.3 -0.4
v -0.3 0.4 -0.4
v -0.1 0.3 -0.4
v -0.1 0.4 -0.4
v 0.1 0.3 -0.4
v 0.1 0.4 -0.4
v 0.3 0.3 -0.4
v 0.3 0.4 -0.4
v -0.3 -0.1 -0.5
v -0.3 0.3 -0.5
v -0.3 0.4 -0.5
v -0.3 0.5 -0.5
v -0.1 -0.1 -0.5
v -0.1 0.3 -0.5
v -0.1 0.4 -0.5
v -0.1 0.5 -0.5
v 0.1 -0.1 -0.5
v 0.1 0.3 -0.5
v 0.1 0.4 -0.5
v 0.1 0.5 -0.5
v 0.3 -0.1 -0.5
v 0.3 0.3 -0.5
v 0.3 0.4 -0.5
v 0.3 0.5 -0.5
v -0.1 -0.4 0.1
v 0.1 -0.4 0.1
v -0.2 -0.4 0
v -0.1 -0.4 0
v 0.1 -0.4 0
v 0.2 -0.4 0
v -0.2 -0.4 -0.1
v -0.1 -0.4 -0.1
v 0.1 -0.4 -0.1
v 0.2 -0.4 -0.1
v -0.1 -0.4 -0.2
v 0.1 -0.4 -0.2
v -0.2 -0.3 0.1
v -0.1 -0.3 0.1
v 0.1 -0.3 0.1
v 0.2 -0.3 0.1
v -0.2 -0.3 0
v -0.1 -0.3 0
v 0.1 -0.3 0
v 0.2 -0.3 0
v -0.2 -0.3 -0.1
v -0.1 -0.3 -0.1
v 0.1 -0.3 -0.1
v 0.2 -0.3 -0.1
v -0.2 -0.3 -0.2
v -0.1 -0.3 -0.2
v 0.1 -0.3 -0.2
v 0.2 -0.3 -0.2
v -0.4 -0.2 0.2
v 0.4 -0.2 0.2
v -0.2 -0.2 0.1
v 0.2 -0.2 0.1
v -0.2 -0.2 -0.2
v 0.2 -0.2 -0.2
v -0.4 -0.2 -0.3
v 0.4 -0.2 -0.3
v -0.3 -0.1 -0.3
v -0.1 -0.1 -0.3
v 0.1 -0.1 -0.3
v 0.3 -0.1 -0.3
v -0.3 -0.1 -0.5
v -0.1 -0.1 -0.5
v 0.1 -0.1 -0.5
v 0.3 -0.1 -0.5
v -0.3 0.4 -0.4
v -0.1 0.4 -0.4
v 0.1 0.4 -0.4
v 0.3 0.4 -0.4
v -0.3 0.4 -0.5
v -0.1 0.4 -0.5
v 0.1 0.4 -0.5
v 0.3 0.4 -0.5
v -0.3 0.3 -0.4
v -0.1 0.3 -0.4
v 0.1 0.3 -0.4
v 0.3 0.3 -0.4
v -0.3 0.3 -0.5
v -0.1 0.3 -0.5
v 0.1 0.3 -0.5
v 0.3 0.3 -0.5
v -0.3 0.5 -0.3
v -0.1 0.5 -0.3
v 0.1 0.5 -0.3
v 0.3 0.5 -0.3
v -0.3 0.5 -0.5
v -0.1 0.5 -0.5
v 0.1 0.5 -0.5
v 0.3 0.5 -0.5
v -0.4 0.6 0.2
v 0.4 0.6 0.2
v -0.4 0.6 -0.3
v 0.4 0.6 -0.3

# faces
f 3/5/1 2/5/1 1/5/1
f 4/5/1 2/5/1 3/5/1
f 7/3/1 6/3/1 5/3/1
f 8/3/1 6/3/1 7/3/1
f 9/3/1 6/3/1 8/3/1
f 10/2/1 8/2/1 7/2/1
f 11/2/1 8/2/1 10/2/1
f 13/3/1 11/3/1 10/3/1
f 13/3/1 12/3/1 11/3/1
f 14/3/1 12/3/1 13/3/1
f 18/4/1 16/4/1 15/4/1
f 19/4/1 16/4/1 18/4/1
f 21/3/1 18/3/1 17/3/1
f 21/3/1 20/3/1 19/3/1
f 21/3/1 19/3/1 18/3/1
f 22/3/1 20/3/1 21/3/1
f 27/3/1 24/3/1 23/3/1
f 28/3/1 24/3/1 27/3/1
f 29/3/1 26/3/1 25/3/1
f 30/3/1 26/3/1 29/3/1
f 33/3/1 32/3/1 31/3/1
f 34/3/1 32/3/1 33/3/1
f 35/3/1 32/3/1 34/3/1
f 36/2/1 34/2/1 33/2/1
f 37/2/1 34/2/1 36/2/1
f 39/3/1 37/3/1 36/3/1
f 39/3/1 38/3/1 37/3/1
f 40/3/1 38/3/1 39/3/1
f 41/3/2 42/3/2 43/3/2
f 43/3/2 42/3/2 44/3/2
f 44/3/2 42/3/2 45/3/2
f 43/2/2 44/2/2 46/2/2
f 46/2/2 44/2/2 47/2/2
f 46/3/2 47/3/2 49/3/2
f 47/3/2 48/3/2 49/3/2
f 49/3/2 48/3/2 50/3/2
f 51/3/2 52/3/2 55/3/2
f 55/3/2 52/3/2 56/3/2
f 53/3/2 54/3/2 57/3/2
f 57/3/2 54/3/2 58/3/2
f 59/4/2 60/4/2 62/4/2
f 62/4/2 60/4/2 63/4/2
f 61/3/2 62/3/2 65/3/2
f 63/3/2 64/3/2 65/3/2
f 62/3/2 63/3/2 65/3/2
f 65/3/2 64/3/2 66/3/2
f 67/3/2 68/3/2 69/3/2
f 69/3/2 68/3/2 70/3/2
f 70/3/2 68/3/2 71/3/2
f 69/2/2 70/2/2 72/2/2
f 72/2/2 70/2/2 73/2/2
f 72/3/2 73/3/2 75/3/2
f 73/3/2 74/3/2 75/3/2
f 75/3/2 74/3/2 76/3/2
f 77/5/2 78/5/2 79/5/2
f 79/5/2 78/5/2 80/5/2
f 83/5/3 82/5/3 81/5/3
f 84/5/3 82/5/3 83/5/3
f 85/3/3 84/3/3 83/3/3
f 86/3/3 84/3/3 85/3/3
f 87/3/3 84/3/3 86/3/3
f 88/3/3 84/3/3 87/3/3
f 89/3/3 85/3/3 83/3/3
f 89/1/3 86/1/3 85/1/3
f 90/3/3 87/3/3 86/3/3
f 90/1/3 86/1/3 89/1/3
f 91/1/3 88/1/3 87/1/3
f 91/3/3 87/3/3 90/3/3
f 92/3/3 84/3/3 88/3/3
f 92/1/3 88/1/3 91/1/3
f 93/1/3 91/1/3 90/1/3
f 93/3/3 90/3/3 89/3/3
f 94/3/3 92/3/3 91/3/3
f 94/1/3 91/1/3 93/1/3
f 95/5/3 83/5/3 81/5/3
f 95/3/3 93/3/3 89/3/3
f 95/3/3 94/3/3 93/3/3
f 95/3/3 89/3/3 83/3/3
f 96/3/3 92/3/3 94/3/3
f 96/3/3 94/3/3 95/3/3
f 96/5/3 82/5/3 84/5/3
f 96/3/3 84/3/3 92/3/3
f 97/5/3 95/5/3 81/5/3
f 97/5/3 96/5/3 95/5/3
f 98/5/3 82/5/3 96/5/3
f 98/5/3 96/5/3 97/5/3
f 102/3/3 100/3/3 99/3/3
f 103/3/3 102/3/3 101/3/3
f 104/3/3 100/3/3 102/3/3
f 104/3/3 102/3/3 103/3/3
f 105/3/3 100/3/3 104/3/3
f 106/3/3 100/3/3 105/3/3
f 109/4/3 108/4/3 107/4/3
f 110/4/3 108/4/3 109/4/3
f 113/4/3 112/4/3 111/4/3
f 114/4/3 112/4/3 113/4/3
f 115/4/4 116/4/4 117/4/4
f 117/4/4 116/4/4 118/4/4
f 119/4/4 120/4/4 121/4/4
f 121/4/4 120/4/4 122/4/4
f 123/3/4 124/3/4 126/3/4
f 125/3/4 126/3/4 127/3/4
f 126/3/4 124/3/4 128/3/4
f 127/3/4 126/3/4 128/3/4
f 128/3/4 124/3/4 129/3/4
f 129/3/4 124/3/4 130/3/4
f 131/5/4 132/5/4 133/5/4
f 133/5/4 132/5/4 134/5/4
f 134/5/4 132/5/4 135/5/4
f 135/5/4 132/5/4 136/5/4
f 131/5/4 133/5/4 137/5/4
f 136/5/4 132/5/4 140/5/4
f 138/5/4 139/5/4 141/5/4
f 139/5/4 140/5/4 141/5/4
f 131/5/4 137/5/4 141/5/4
f 137/5/4 138/5/4 141/5/4
f 141/5/4 140/5/4 142/5/4
f 142/5/4 140/5/4 143/5/4
f 140/5/4 132/5/4 144/5/4
f 143/5/4 140/5/4 144/5/4
f 131/5/4 141/5/4 145/5/4
f 144/5/4 132/5/4 148/5/4
f 146/5/4 147/5/4 149/5/4
f 147/5/4 148/5/4 149/5/4
f 131/5/4 145/5/4 149/5/4
f 145/5/4 146/5/4 149/5/4
f 148/5/4 132/5/4 150/5/4
f 149/5/4 148/5/4 150/5/4
f 151/2/4 152/2/4 153/2/4
f 153/2/4 152/2/4 154/2/4
f 155/2/4 156/2/4 157/2/4
f 157/2/4 156/2/4 158/2/4
f 159/3/4 160/3/4 163/3/4
f 163/3/4 160/3/4 164/3/4
f 161/3/4 162/3/4 165/3/4
f 165/3/4 162/3/4 166/3/4
f 167/3/4 168/3/4 171/3/4
f 171/3/4 168/3/4 172/3/4
f 169/3/4 170/3/4 173/3/4
f 173/3/4 170/3/4 174/3/4
f 178/3/5 176/3/5 175/3/5
f 179/3/5 176/3/5 178/3/5
f 181/4/5 178/4/5 177/4/5
f 182/3/5 179/3/5 178/3/5
f 182/4/5 178/4/5 181/4/5
f 183/4/5 180/4/5 179/4/5
f 183/3/5 179/3/5 182/3/5
f 184/4/5 180/4/5 183/4/5
f 185/3/5 183/3/5 182/3/5
f 186/3/5 183/3/5 185/3/5
f 191/3/5 188/3/5 187/3/5
f 192/3/5 188/3/5 191/3/5
f 193/3/5 190/3/5 189/3/5
f 194/3/5 190/3/5 193/3/5
f 199/3/5 196/3/5 195/3/5
f 200/3/5 196/3/5 199/3/5
f 201/3/5 198/3/5 197/3/5
f 202/3/5 198/3/5 201/3/5
f 205/5/5 204/5/5 203/5/5
f 206/5/5 204/5/5 205/5/5
f 207/5/5 205/5/5 203/5/5
f 208/5/5 204/5/5 206/5/5
f 209/5/5 207/5/5 203/5/5
f 209/5/5 208/5/5 207/5/5
f 210/5/5 204/5/5 208/5/5
f 210/5/5 208/5/5 209/5/5
f 215/3/5 212/3/5 211/3/5
f 216/3/5 212/3/5 215/3/5
f 217/3/5 214/3/5 213/3/5
f 218/3/5 214/3/5 217/3/5
f 223/3/5 220/3/5 219/3/5
f 224/3/5 220/3/5 223/3/5
f 225/3/5 222/3/5 221/3/5
f 226/3/5 222/3/5 225/3/5
f 227/3/6 228/3/6 231/3/6
f 231/3/6 228/3/6 232/3/6
f 229/3/6 230/3/6 233/3/6
f 233/3/6 230/3/6 234/3/6
f 235/3/6 236/3/6 239/3/6
f 239/3/6 236/3/6 240/3/6
f 237/3/6 238/3/6 241/3/6
f 241/3/6 238/3/6 242/3/6
f 243/5/6 244/5/6 245/5/6
f 245/5/6 244/5/6 246/5/6
